<?xml version="1.0" encoding="UTF-8"?>
<svg id="Calque_1" data-name="Calque 1" xmlns="http://www.w3.org/2000/svg" viewBox="0 0 429 332">
  <defs>
    <style>
      .cls-1 {
        fill: #fff;
      }

      .cls-2 {
        fill: #05f;
      }

      .cls-3 {
        fill: #ff7f2a;
      }
    </style>
  </defs>
  <path class="cls-3" d="M253.79,191.65c-6.5,4.94-11.68,12.68-17.93,17.72-4.76,3.83-9.41,2.48-13.26-1.78-2.45-2.71-5.24-9.92-9.79-6.08-.91.77-3.91,7.35-4.57,7.22l-17.42-10.97c-2.6-3.4-2.88-6.22-1.16-9.99,3.57-7.85,10.27-15.32,13.44-23.5l35.61,14.54,15.09,12.84Z"/>
  <path class="cls-1" d="M288.38,130.1c.12-.17-.02-1.31.24-1.92.81-1.88,2.28-4.19,4.57-4.27,1.2,1.44,6.25,5.97,5.29,7.77l-1.25.83c-1.23-1.33-2.45-4.12-4.55-2.71,1.15,2.06,1.98,4.21,1.52,6.6,2.62,1.05,1.7-1.19,1.97-1.7.16-.3,3.78-.13,4.48-2.98.75-3.03-3.29-5.41-4.35-7.98,2.05-1.54,3.61-.47,5.38.86,4.19,3.14,6.5,8.81,2.99,13.32-1.76,2.26-10.35,7.69-13.23,9.26-12.67,6.91-28.57,8.75-42.35,4.7l-.53-16.83c11.48,4.24,25.13,3.58,35.95-2.46.6-.33,3.73-2.3,3.86-2.49Z"/>
  <path class="cls-1" d="M187.25,111.24c7.66-4.5,15.84-3,23.55.29l-5.53,14.59c-.88,1.15-5.21-1.52-6.78-1.64-.89-.07-1.92.06-2.72.44-5.37,2.52-12.09,10.82-17.63,13.94-1.72,1.98-.12,4.96-3.73,5.87-1.02.26-2.33-.33-3.37.09-1.13.46-1.5,1.6-3.2,1.82-2.23.29-6.43-3.8-7.54-5.68-2.79-4.69-2.62-6.24,1.27-9.83,5.28-4.86,19.71-16.39,25.67-19.89Z"/>
  <path class="cls-1" d="M259.17,196.14c3.03.89,17.43,43.34,20.46,48.97.19.84.05,1.35-.32,2.09-1.49,3.05-5.62,6.85-7.33,10.07l-25.75-43.84-2.68-2.27,15.62-15.02Z"/>
  <path class="cls-1" d="M261.48,102.89c-.16.28-.03,4.82-.36,6.31-2.26,10.23-9.23,9.02-17.78,7.95l-1.46,2.11c-4.45-3.77-10.18-3.46-14.83-6.71.64-4.66,5.54-2.76,6.9-7.12,1.44-4.62-2.81-8.79-.37-12.26,1.76-2.52,3.61-1.75,4.8-2.69.66-.52,1.29-3.28,2.54-4.26,4.15-3.26,9.67-1.94,14.47-2.9,1.34-.27,3.48-1.89,4.38-.95,2.89,2.78.85,8.98,1.8,11.59.94,2.56,5.83,5.43,2.26,8.15-1.02.78-2.28.67-2.34.78ZM258.48,87.51c.92-2.87-8.23-1.83-8.01,1.38.1,1.48,3.2-.5,3.9-.68.82-.21,3.97-.28,4.11-.7ZM257.74,91.65c-3.47-2.25-6.88-.07-6.67,4l3.3.32c-.86-2.72.76-4.08,3.37-4.32ZM258.54,95.61c-.34-1.89-1.01-4.22-3.14-2.04-.86,2.68,1.05,3.01,3.14,2.04ZM252.69,103.82c.02,2.78,5.49,6.06,7.06,3.43,1.12-1.87-2.76-.87-3.8-1.74-1.13-.94-1.2-3.11-3.26-1.68Z"/>
  <path class="cls-1" d="M183.48,200.3c.65.36,3.08,3.28,4.51,4.37,4.64,3.52,10.77,6.31,15.75,9.43-1.81,3.64-6.18,5.09-10.02,5.46l-44.85-9.19,2.54-12.35,32.07,2.29Z"/>
  <path class="cls-2" d="M257.11,90.33c-2.61.24-4.23,1.6-3.37,4.32l-3.3-.32c-.2-4.07,3.21-6.25,6.67-4Z"/>
  <path class="cls-2" d="M257.85,86.18c-.13.42-3.29.49-4.11.7-.7.18-3.8,2.16-3.9.68-.22-3.21,8.93-4.25,8.01-1.38Z"/>
  <path class="cls-2" d="M252.06,102.49c2.06-1.43,2.13.74,3.26,1.68,1.04.87,4.92-.13,3.8,1.74-1.57,2.63-7.04-.64-7.06-3.43Z"/>
  <path class="cls-2" d="M257.91,94.29c-2.09.97-4.01.64-3.14-2.04,2.13-2.18,2.8.15,3.14,2.04Z"/>
  <path class="cls-2" d="M186.62,109.91c-5.97,3.51-20.39,15.03-25.67,19.89-3.89,3.58-4.06,5.14-1.27,9.83,1.12,1.88,5.31,5.97,7.54,5.68,1.7-.22,2.07-1.36,3.2-1.82,1.04-.43,2.35.16,3.37-.09,3.61-.91,2-3.89,3.73-5.87,5.54-3.13,12.26-11.42,17.63-13.94.81-.38,1.84-.5,2.72-.44,1.58.12,5.9,2.79,6.78,1.64l5.53-14.59c-7.71-3.3-15.9-4.79-23.55-.29ZM260.84,101.57c.06-.11,1.32,0,2.34-.78,3.57-2.72-1.33-5.59-2.26-8.15-.95-2.6,1.1-8.81-1.8-11.59-.9-.94-3.03.68-4.38.95-4.8.96-10.32-.36-14.47,2.9-1.25.98-1.87,3.74-2.54,4.26-1.19.93-3.04.17-4.8,2.69-2.43,3.47,1.82,7.64.37,12.26-1.36,4.36-6.27,2.47-6.9,7.12,4.65,3.26,10.38,2.94,14.83,6.71l1.46-2.11c8.56,1.07,15.53,2.28,17.78-7.95.33-1.49.21-6.04.36-6.31ZM287.75,128.77c-.13.19-3.27,2.16-3.86,2.49-10.82,6.04-24.47,6.7-35.95,2.46l.53,16.83c13.78,4.05,29.68,2.2,42.35-4.7,2.88-1.57,11.46-7,13.23-9.26,3.52-4.51,1.21-10.18-2.99-13.32-1.77-1.33-3.34-2.4-5.38-.86,1.06,2.57,5.09,4.94,4.35,7.98-.7,2.85-4.32,2.68-4.48,2.98-.27.51.66,2.75-1.97,1.7.46-2.39-.37-4.54-1.52-6.6,2.09-1.41,3.31,1.38,4.55,2.71l1.25-.83c.96-1.8-4.09-6.32-5.29-7.77-2.29.07-3.76,2.38-4.57,4.27-.27.62-.12,1.75-.24,1.92ZM252.95,189.88l-15.09-12.84-35.61-14.54c-3.17,8.19-9.88,15.66-13.44,23.5-1.71,3.76-1.44,6.59,1.16,9.99l17.42,10.97c.66.13,3.66-6.45,4.57-7.22,4.55-3.85,7.34,3.36,9.79,6.08,3.86,4.26,8.51,5.62,13.26,1.78,6.25-5.04,11.43-12.77,17.93-17.72ZM182.85,198.98l-32.07-2.29-2.54,12.35,44.85,9.19c3.84-.37,8.21-1.82,10.02-5.46-4.98-3.11-11.11-5.9-15.75-9.43-1.43-1.08-3.86-4.01-4.51-4.37ZM258.54,194.81l-15.62,15.02,2.68,2.27,25.75,43.84c1.71-3.21,5.84-7.01,7.33-10.07.36-.74.51-1.25.32-2.09-3.03-5.63-17.43-48.08-20.46-48.97ZM268.13,106.37c-.19.4.07,2.6-.23,3.78-1.89,7.38-7.17,12.72-14.95,13.6l1.13,3.52c.98,1.66,9.08,1.88,11.14,1.75,4.12-.26,12.55-1.99,15.53-4.75,1.9-1.76,2.29-4.98,5.67-7.17,2.42-1.56,9.92-3.35,12.7-2.83,9.27,1.74,16.65,13.66,13.26,22.71-3.09,8.25-21.17,17.45-29.18,20.01-9.61,3.08-19.19,3.18-29.11,2.62-1.67,5.52-3.36,11.04-6.16,16.11,5.91,5.69,14.28,10.05,18.43,17.28,3.39,5.92,5.08,11.96,7.53,18.1,3.57,8.94,7.21,17.84,10.57,26.86.63.77,16.62-.69,19.83.23,7.22,2.06,9.85,13.47,3.89,18.54-2.94,2.5-10.14,6.27-13.81,8.32-3.81,2.12-9.57,5.67-13.49,6.98-9.63,3.22-13.31-8.4-16.9-14.47-8.08-13.64-16.44-27.14-24.42-40.85l-2.46-1.9c-4.45,3.34-11.31,2.86-16.03.17-2.59-1.48-3.92-3.65-6.18-5.37-6.43,10.15-12.71,17.25-25.79,15.74-12.48-1.44-26.03-6.32-38.63-8.12-7.23,1.72-14.36,8.54-21.28,10.24-4.77,1.17-11.63-4.16-13.07-8.52-.78-2.35-.09-4.87,1-6.99,2.47-4.81,12.27-19.83,15.72-23.8,7.29-8.37,13.28-3.29,20.51,1.31l27.08,1.84c-.27-.89-.29-1.91-.15-2.81,1.36-8.95,15.05-27.41,19.81-36.67,2.86-5.57,4.97-11.43,6.96-17.35l-9.45-3.37c-.81.29-12.54,9.68-13.39,10.67-2.88,3.39-1.28,6.42-7.78,8.56-2.26.75-4.77,1.59-7.05,2.28-9.82,2.96-24.19-14.68-16.52-24.93,3.51-4.68,21.63-18.37,27.27-22.27,6.95-4.8,14.95-6.98,23.3-5.18,1.44.31,4.75,1.87,5.59,1.85,1.51-.04,4.73-1.82,6.71-1.83-9.03-18.45-4.86-42.63,20.47-40.52,6.93.58,7.37.56,14.38-.16,11.12-1.14,17.48,5.18,17.09,16.35-.13,3.85-.35,9.61.57,13.43,1.06,4.38,4.53,5.58,3.33,11.47-.66,3.24-2.72,3.98-3.46,5.57Z"/>
</svg>